<svg xmlns="http://www.w3.org/2000/svg" viewBox="0 0 96 96" width="96" height="96" role="img" aria-label="Yay Thal Pya Zat mono">
  <defs><clipPath id="d5"><path d="M58 8 C58 8 26 38 26 60 a32 32 0 0 0 64 0 C90 38 58 8 58 8 Z"/></clipPath></defs>
  <rect x="4" y="41" width="12" height="6" rx="3" fill="#0B2545" opacity="0.35"/>
  <rect x="0" y="55" width="18" height="6" rx="3" fill="#0B2545" opacity="0.75"/>
  <rect x="6" y="69" width="10" height="6" rx="3" fill="#0B2545" opacity="0.55"/>
  <path d="M58 8 C58 8 26 38 26 60 a32 32 0 0 0 64 0 C90 38 58 8 58 8 Z" fill="#0B2545"/>
  <g clip-path="url(#d5)"><path d="M18 66 c8 0 8 -7 16 -7 s8 7 16 7 s8 -7 16 -7 s8 7 16 7 s8 -7 16 -7 v40 H18 Z" fill="#FFFFFF" opacity="0.28"/></g>
</svg>
