<svg xmlns="http://www.w3.org/2000/svg" viewBox="0 0 300 190" width="300" height="190" role="img" aria-label="Yay Thal Pya Zat">
  <defs><clipPath id="d2"><path d="M160 12 C160 12 128 42 128 64 a32 32 0 0 0 64 0 C192 42 160 12 160 12 Z"/></clipPath></defs>
  <rect x="106" y="45" width="12" height="6" rx="3" fill="#F2A65A" opacity="0.45"/>
  <rect x="102" y="59" width="18" height="6" rx="3" fill="#F2A65A"/>
  <rect x="108" y="73" width="10" height="6" rx="3" fill="#F2A65A" opacity="0.7"/>
  <path d="M160 12 C160 12 128 42 128 64 a32 32 0 0 0 64 0 C192 42 160 12 160 12 Z" fill="#0B2545"/>
  <g clip-path="url(#d2)"><path d="M120 70 c8 0 8 -7 16 -7 s8 7 16 7 s8 -7 16 -7 s8 7 16 7 s8 -7 16 -7 v40 h-80 Z" fill="#2CA6A4"/></g>
  <text x="150" y="145" text-anchor="middle" font-family="Poppins, Inter, Segoe UI, Arial, sans-serif" font-size="29" font-weight="700" fill="#0B2545" letter-spacing="-0.5">Yay Thal Pya Zat</text>
  <text x="150" y="168" text-anchor="middle" font-family="Inter, Segoe UI, Arial, sans-serif" font-size="12" font-weight="600" fill="#1C7293" letter-spacing="3.2">WATER, DELIVERED</text>
</svg>
